<svg width="28" height="21" viewBox="0 0 28 21" fill="none" xmlns="http://www.w3.org/2000/svg">
    <path d="M22.8377 12.4453C22.6285 12.3376 22.388 12.3072 22.1585 12.3594C21.9291 12.4115 21.7254 12.5429 21.5832 12.7304C21.4411 12.918 21.3696 13.1496 21.3814 13.3846C21.3932 13.6196 21.4875 13.8429 21.6477 14.0153L23.1077 15.1053H19.5277C19.5277 15.1053 19.4777 15.1053 19.4477 15.1053C18.4374 15.0954 17.442 14.8605 16.5339 14.4177C15.6257 13.9749 14.8277 13.3352 14.1977 12.5453C14.016 12.3504 13.7644 12.2356 13.4981 12.2262C13.2318 12.2168 12.9727 12.3136 12.7777 12.4953C12.5828 12.677 12.468 12.9286 12.4586 13.1949C12.4493 13.4612 12.546 13.7204 12.7277 13.9153C13.544 14.9311 14.5801 15.7486 15.7579 16.3064C16.9357 16.8641 18.2246 17.1475 19.5277 17.1353H23.1077L21.6477 18.2253C21.4579 18.3908 21.3374 18.6218 21.3105 18.8722C21.2835 19.1225 21.3521 19.3739 21.5023 19.576C21.6526 19.778 21.8736 19.916 22.1212 19.9622C22.3688 20.0084 22.6246 19.9595 22.8377 19.8253L26.7277 16.9353C26.8519 16.8422 26.9527 16.7214 27.0221 16.5825C27.0916 16.4437 27.1277 16.2905 27.1277 16.1353C27.1277 15.9801 27.0916 15.8269 27.0221 15.6881C26.9527 15.5492 26.8519 15.4284 26.7277 15.3353L22.8377 12.4453Z"
          fill="black"/>
    <path d="M19.3675 5.08532C19.4198 5.07031 19.4753 5.07031 19.5275 5.08532H23.2575L21.6175 6.38532C21.4093 6.54975 21.275 6.79015 21.2441 7.05364C21.2131 7.31713 21.2881 7.58212 21.4525 7.79032C21.617 7.99851 21.8574 8.13286 22.1209 8.1638C22.3844 8.19475 22.6493 8.11975 22.8575 7.95532L26.7475 4.86532C26.8643 4.77162 26.9586 4.65288 27.0234 4.51788C27.0881 4.38288 27.1218 4.23505 27.1218 4.08532C27.1218 3.93558 27.0881 3.78776 27.0234 3.65275C26.9586 3.51775 26.8643 3.39902 26.7475 3.30532L22.8575 0.215316C22.6493 0.0508815 22.3844 -0.0241124 22.1209 0.00683106C21.8574 0.0377746 21.617 0.172121 21.4525 0.380316C21.2881 0.588511 21.2131 0.8535 21.2441 1.11699C21.275 1.38048 21.4093 1.62088 21.6175 1.78532L23.2575 3.08532H19.5275C15.6575 3.00532 13.1875 5.53532 11.2875 8.43532C9.10754 5.01532 6.60754 1.13532 1.72754 1.13532C1.46232 1.13532 1.20797 1.24067 1.02043 1.42821C0.832896 1.61575 0.727539 1.8701 0.727539 2.13532C0.727539 2.40053 0.832896 2.65489 1.02043 2.84242C1.20797 3.02996 1.46232 3.13532 1.72754 3.13532C5.82754 3.13532 7.92754 6.87532 10.1175 10.3253C7.92754 14.0153 5.81754 18.0753 1.72754 18.0153C1.46232 18.0153 1.20797 18.1207 1.02043 18.3082C0.832896 18.4957 0.727539 18.7501 0.727539 19.0153C0.727539 19.2805 0.832896 19.5349 1.02043 19.7224C1.20797 19.91 1.46232 20.0153 1.72754 20.0153C11.1875 20.1053 11.0475 5.42532 19.3675 5.08532Z"
          fill="black"/>
</svg>
