<svg xmlns="http://www.w3.org/2000/svg" viewBox="0 0 512 512"><path d="M411,221.64c-1.68,0-3.35.06-5,.16a82.2,82.2,0,0,0-130.31-53.64,82.16,82.16,0,0,0-144.56,53.48v.09A82.18,82.18,0,0,0,134.84,386H410.3v0l.67,0a82.19,82.19,0,1,0,0-164.37Z" style="fill:#359b9b"/><path d="M94.48,494.08H94A76.18,76.18,0,0,1,90.62,341.8a6,6,0,0,0,5.73-6v-.17a76.16,76.16,0,0,1,134-49.49,6,6,0,0,0,8.14.91,76.2,76.2,0,0,1,120.79,49.72,6,6,0,0,0,5.93,5.11h.36c1.74-.11,3.27-.16,4.66-.16a76.19,76.19,0,0,1,0,152.37H94.48Z" style="fill:#307477"/><path d="M172.54,265.52a70.12,70.12,0,0,1,53.27,24.53,12,12,0,0,0,16.28,1.81,70.2,70.2,0,0,1,111.27,45.8,12,12,0,0,0,11.86,10.22l.73,0c1.61-.09,3-.14,4.29-.14a70.19,70.19,0,0,1,.07,140.37H94a70.18,70.18,0,0,1-3.06-140.29,12,12,0,0,0,11.46-12v-.2a70.27,70.27,0,0,1,70.19-70.05m0-12a82.19,82.19,0,0,0-82.19,82.19v.09A82.18,82.18,0,0,0,94.1,500.08H370.24a82.19,82.19,0,0,0,0-164.37c-1.69,0-3.36.07-5,.17a82.19,82.19,0,0,0-130.3-53.65,82,82,0,0,0-62.38-28.71Z" style="fill:#fff"/></svg>