<svg xmlns="http://www.w3.org/2000/svg" viewBox="0 0 512 512"><path d="M414.56,179.49c-1.93,0-3.85.08-5.76.19a94.39,94.39,0,0,0-149.64-61.61,94.37,94.37,0,0,0-166,61.42v.11a94.38,94.38,0,0,0,4.31,188.66H413.78v0l.78,0a94.39,94.39,0,1,0,0-188.77Z" style="fill:#4eadb7"/><line x1="161.18" y1="401.18" x2="161.18" y2="469.09" style="fill:none;stroke:#4eadb7;stroke-linecap:round;stroke-linejoin:round;stroke-width:6px"/><line x1="149.12" y1="406.04" x2="161.18" y2="418.11" style="fill:none;stroke:#4eadb7;stroke-linecap:round;stroke-linejoin:round;stroke-width:6px"/><line x1="173.25" y1="406.04" x2="161.18" y2="418.11" style="fill:none;stroke:#4eadb7;stroke-linecap:round;stroke-linejoin:round;stroke-width:6px"/><line x1="149.12" y1="464.23" x2="161.18" y2="452.16" style="fill:none;stroke:#4eadb7;stroke-linecap:round;stroke-linejoin:round;stroke-width:6px"/><line x1="173.25" y1="464.23" x2="161.18" y2="452.16" style="fill:none;stroke:#4eadb7;stroke-linecap:round;stroke-linejoin:round;stroke-width:6px"/><line x1="161.18" y1="401.18" x2="161.18" y2="469.09" style="fill:none;stroke:#4eadb7;stroke-linecap:round;stroke-linejoin:round;stroke-width:6px"/><line x1="149.12" y1="406.04" x2="161.18" y2="418.11" style="fill:none;stroke:#4eadb7;stroke-linecap:round;stroke-linejoin:round;stroke-width:6px"/><line x1="173.25" y1="406.04" x2="161.18" y2="418.11" style="fill:none;stroke:#4eadb7;stroke-linecap:round;stroke-linejoin:round;stroke-width:6px"/><line x1="149.12" y1="464.23" x2="161.18" y2="452.16" style="fill:none;stroke:#4eadb7;stroke-linecap:round;stroke-linejoin:round;stroke-width:6px"/><line x1="173.25" y1="464.23" x2="161.18" y2="452.16" style="fill:none;stroke:#4eadb7;stroke-linecap:round;stroke-linejoin:round;stroke-width:6px"/><line x1="189.2" y1="415.95" x2="133.17" y2="454.32" style="fill:none;stroke:#4eadb7;stroke-linecap:round;stroke-linejoin:round;stroke-width:6px"/><line x1="192.01" y1="428.65" x2="175.23" y2="425.52" style="fill:none;stroke:#4eadb7;stroke-linecap:round;stroke-linejoin:round;stroke-width:6px"/><line x1="178.37" y1="408.74" x2="175.23" y2="425.52" style="fill:none;stroke:#4eadb7;stroke-linecap:round;stroke-linejoin:round;stroke-width:6px"/><line x1="144" y1="461.53" x2="147.14" y2="444.75" style="fill:none;stroke:#4eadb7;stroke-linecap:round;stroke-linejoin:round;stroke-width:6px"/><line x1="130.36" y1="441.61" x2="147.14" y2="444.75" style="fill:none;stroke:#4eadb7;stroke-linecap:round;stroke-linejoin:round;stroke-width:6px"/><line x1="189.2" y1="415.95" x2="133.17" y2="454.32" style="fill:none;stroke:#4eadb7;stroke-linecap:round;stroke-linejoin:round;stroke-width:6px"/><line x1="192.01" y1="428.65" x2="175.23" y2="425.52" style="fill:none;stroke:#4eadb7;stroke-linecap:round;stroke-linejoin:round;stroke-width:6px"/><line x1="178.37" y1="408.74" x2="175.23" y2="425.52" style="fill:none;stroke:#4eadb7;stroke-linecap:round;stroke-linejoin:round;stroke-width:6px"/><line x1="144" y1="461.53" x2="147.14" y2="444.75" style="fill:none;stroke:#4eadb7;stroke-linecap:round;stroke-linejoin:round;stroke-width:6px"/><line x1="130.36" y1="441.61" x2="147.14" y2="444.75" style="fill:none;stroke:#4eadb7;stroke-linecap:round;stroke-linejoin:round;stroke-width:6px"/><line x1="190.71" y1="451.9" x2="131.66" y2="418.36" style="fill:none;stroke:#4eadb7;stroke-linecap:round;stroke-linejoin:round;stroke-width:6px"/><line x1="192.44" y1="439.01" x2="175.99" y2="443.54" style="fill:none;stroke:#4eadb7;stroke-linecap:round;stroke-linejoin:round;stroke-width:6px"/><line x1="180.52" y1="459.99" x2="175.99" y2="443.54" style="fill:none;stroke:#4eadb7;stroke-linecap:round;stroke-linejoin:round;stroke-width:6px"/><line x1="141.85" y1="410.27" x2="146.38" y2="426.73" style="fill:none;stroke:#4eadb7;stroke-linecap:round;stroke-linejoin:round;stroke-width:6px"/><line x1="129.93" y1="431.26" x2="146.38" y2="426.73" style="fill:none;stroke:#4eadb7;stroke-linecap:round;stroke-linejoin:round;stroke-width:6px"/><line x1="339.27" y1="401.18" x2="339.27" y2="469.09" style="fill:none;stroke:#4eadb7;stroke-linecap:round;stroke-linejoin:round;stroke-width:6px"/><line x1="327.21" y1="406.04" x2="339.27" y2="418.11" style="fill:none;stroke:#4eadb7;stroke-linecap:round;stroke-linejoin:round;stroke-width:6px"/><line x1="351.34" y1="406.04" x2="339.27" y2="418.11" style="fill:none;stroke:#4eadb7;stroke-linecap:round;stroke-linejoin:round;stroke-width:6px"/><line x1="327.21" y1="464.23" x2="339.27" y2="452.16" style="fill:none;stroke:#4eadb7;stroke-linecap:round;stroke-linejoin:round;stroke-width:6px"/><line x1="351.34" y1="464.23" x2="339.27" y2="452.16" style="fill:none;stroke:#4eadb7;stroke-linecap:round;stroke-linejoin:round;stroke-width:6px"/><line x1="339.27" y1="401.18" x2="339.27" y2="469.09" style="fill:none;stroke:#4eadb7;stroke-linecap:round;stroke-linejoin:round;stroke-width:6px"/><line x1="327.21" y1="406.04" x2="339.27" y2="418.11" style="fill:none;stroke:#4eadb7;stroke-linecap:round;stroke-linejoin:round;stroke-width:6px"/><line x1="351.34" y1="406.04" x2="339.27" y2="418.11" style="fill:none;stroke:#4eadb7;stroke-linecap:round;stroke-linejoin:round;stroke-width:6px"/><line x1="327.21" y1="464.23" x2="339.27" y2="452.16" style="fill:none;stroke:#4eadb7;stroke-linecap:round;stroke-linejoin:round;stroke-width:6px"/><line x1="351.34" y1="464.23" x2="339.27" y2="452.16" style="fill:none;stroke:#4eadb7;stroke-linecap:round;stroke-linejoin:round;stroke-width:6px"/><line x1="367.29" y1="415.95" x2="311.26" y2="454.32" style="fill:none;stroke:#4eadb7;stroke-linecap:round;stroke-linejoin:round;stroke-width:6px"/><line x1="370.09" y1="428.65" x2="353.32" y2="425.52" style="fill:none;stroke:#4eadb7;stroke-linecap:round;stroke-linejoin:round;stroke-width:6px"/><line x1="356.46" y1="408.74" x2="353.32" y2="425.52" style="fill:none;stroke:#4eadb7;stroke-linecap:round;stroke-linejoin:round;stroke-width:6px"/><line x1="322.09" y1="461.53" x2="325.23" y2="444.75" style="fill:none;stroke:#4eadb7;stroke-linecap:round;stroke-linejoin:round;stroke-width:6px"/><line x1="308.45" y1="441.61" x2="325.23" y2="444.75" style="fill:none;stroke:#4eadb7;stroke-linecap:round;stroke-linejoin:round;stroke-width:6px"/><line x1="367.29" y1="415.95" x2="311.26" y2="454.32" style="fill:none;stroke:#4eadb7;stroke-linecap:round;stroke-linejoin:round;stroke-width:6px"/><line x1="370.09" y1="428.65" x2="353.32" y2="425.52" style="fill:none;stroke:#4eadb7;stroke-linecap:round;stroke-linejoin:round;stroke-width:6px"/><line x1="356.46" y1="408.74" x2="353.32" y2="425.52" style="fill:none;stroke:#4eadb7;stroke-linecap:round;stroke-linejoin:round;stroke-width:6px"/><line x1="322.09" y1="461.53" x2="325.23" y2="444.75" style="fill:none;stroke:#4eadb7;stroke-linecap:round;stroke-linejoin:round;stroke-width:6px"/><line x1="308.45" y1="441.61" x2="325.23" y2="444.75" style="fill:none;stroke:#4eadb7;stroke-linecap:round;stroke-linejoin:round;stroke-width:6px"/><line x1="368.8" y1="451.9" x2="309.75" y2="418.36" style="fill:none;stroke:#4eadb7;stroke-linecap:round;stroke-linejoin:round;stroke-width:6px"/><line x1="370.53" y1="439.01" x2="354.08" y2="443.54" style="fill:none;stroke:#4eadb7;stroke-linecap:round;stroke-linejoin:round;stroke-width:6px"/><line x1="358.61" y1="459.99" x2="354.08" y2="443.54" style="fill:none;stroke:#4eadb7;stroke-linecap:round;stroke-linejoin:round;stroke-width:6px"/><line x1="319.94" y1="410.27" x2="324.47" y2="426.73" style="fill:none;stroke:#4eadb7;stroke-linecap:round;stroke-linejoin:round;stroke-width:6px"/><line x1="308.02" y1="431.26" x2="324.47" y2="426.73" style="fill:none;stroke:#4eadb7;stroke-linecap:round;stroke-linejoin:round;stroke-width:6px"/></svg>