<svg xmlns="http://www.w3.org/2000/svg" viewBox="0 0 512 512"><path d="M479.93,501.5c-268.13,24.69-492.7-199.88-468-468A19.22,19.22,0,0,1,31.16,14.26c268.13-24.69,492.71,199.88,468,468A19.22,19.22,0,0,1,479.93,501.5Z" style="fill:#26d326"/><line x1="255.55" y1="145.35" x2="255.55" y2="370.41" style="fill:none;stroke:#0031ff;stroke-linecap:round;stroke-linejoin:round;stroke-width:16px"/><line x1="215.56" y1="161.47" x2="255.55" y2="201.46" style="fill:none;stroke:#0031ff;stroke-linecap:round;stroke-linejoin:round;stroke-width:16px"/><line x1="295.53" y1="161.47" x2="255.55" y2="201.46" style="fill:none;stroke:#0031ff;stroke-linecap:round;stroke-linejoin:round;stroke-width:16px"/><line x1="215.56" y1="354.29" x2="255.55" y2="314.3" style="fill:none;stroke:#0031ff;stroke-linecap:round;stroke-linejoin:round;stroke-width:16px"/><line x1="295.53" y1="354.29" x2="255.55" y2="314.3" style="fill:none;stroke:#0031ff;stroke-linecap:round;stroke-linejoin:round;stroke-width:16px"/><line x1="255.55" y1="145.35" x2="255.55" y2="370.41" style="fill:none;stroke:#0031ff;stroke-linecap:round;stroke-linejoin:round;stroke-width:16px"/><line x1="215.56" y1="161.47" x2="255.55" y2="201.46" style="fill:none;stroke:#0031ff;stroke-linecap:round;stroke-linejoin:round;stroke-width:16px"/><line x1="295.53" y1="161.47" x2="255.55" y2="201.46" style="fill:none;stroke:#0031ff;stroke-linecap:round;stroke-linejoin:round;stroke-width:16px"/><line x1="215.56" y1="354.29" x2="255.55" y2="314.3" style="fill:none;stroke:#0031ff;stroke-linecap:round;stroke-linejoin:round;stroke-width:16px"/><line x1="295.53" y1="354.29" x2="255.55" y2="314.3" style="fill:none;stroke:#0031ff;stroke-linecap:round;stroke-linejoin:round;stroke-width:16px"/><line x1="348.39" y1="194.3" x2="162.7" y2="321.46" style="fill:none;stroke:#0031ff;stroke-linecap:round;stroke-linejoin:round;stroke-width:16px"/><line x1="357.68" y1="236.4" x2="302.1" y2="226" style="fill:none;stroke:#0031ff;stroke-linecap:round;stroke-linejoin:round;stroke-width:16px"/><line x1="312.5" y1="170.42" x2="302.1" y2="226" style="fill:none;stroke:#0031ff;stroke-linecap:round;stroke-linejoin:round;stroke-width:16px"/><line x1="198.6" y1="345.34" x2="209" y2="289.76" style="fill:none;stroke:#0031ff;stroke-linecap:round;stroke-linejoin:round;stroke-width:16px"/><line x1="153.41" y1="279.36" x2="209" y2="289.76" style="fill:none;stroke:#0031ff;stroke-linecap:round;stroke-linejoin:round;stroke-width:16px"/><line x1="348.39" y1="194.3" x2="162.7" y2="321.46" style="fill:none;stroke:#0031ff;stroke-linecap:round;stroke-linejoin:round;stroke-width:16px"/><line x1="357.68" y1="236.4" x2="302.1" y2="226" style="fill:none;stroke:#0031ff;stroke-linecap:round;stroke-linejoin:round;stroke-width:16px"/><line x1="312.5" y1="170.42" x2="302.1" y2="226" style="fill:none;stroke:#0031ff;stroke-linecap:round;stroke-linejoin:round;stroke-width:16px"/><line x1="198.6" y1="345.34" x2="209" y2="289.76" style="fill:none;stroke:#0031ff;stroke-linecap:round;stroke-linejoin:round;stroke-width:16px"/><line x1="153.41" y1="279.36" x2="209" y2="289.76" style="fill:none;stroke:#0031ff;stroke-linecap:round;stroke-linejoin:round;stroke-width:16px"/><line x1="353.39" y1="313.46" x2="157.7" y2="202.3" style="fill:none;stroke:#0031ff;stroke-linecap:round;stroke-linejoin:round;stroke-width:16px"/><line x1="359.12" y1="270.73" x2="304.6" y2="285.75" style="fill:none;stroke:#0031ff;stroke-linecap:round;stroke-linejoin:round;stroke-width:16px"/><line x1="319.62" y1="340.27" x2="304.6" y2="285.75" style="fill:none;stroke:#0031ff;stroke-linecap:round;stroke-linejoin:round;stroke-width:16px"/><line x1="191.47" y1="175.49" x2="206.49" y2="230.02" style="fill:none;stroke:#0031ff;stroke-linecap:round;stroke-linejoin:round;stroke-width:16px"/><line x1="151.97" y1="245.04" x2="206.49" y2="230.02" style="fill:none;stroke:#0031ff;stroke-linecap:round;stroke-linejoin:round;stroke-width:16px"/></svg>