<svg xmlns="http://www.w3.org/2000/svg" viewBox="0 0 512 512"><path d="M403.8,182.1c-1.81,0-3.59.07-5.37.18a88,88,0,0,0-139.49-57.42A88,88,0,0,0,104.18,182.1s0,.07,0,.1a88,88,0,0,0,4,175.86H403.07v0l.73,0a88,88,0,0,0,0-176Z" style="fill:#4eadb7"/><polygon points="227.95 320.51 179.2 320.51 148.99 387.11 165.07 387.11 147.59 448.54 210.81 370.89 198.4 371.43 227.95 320.51" style="fill:#d6a322"/><polygon points="218.98 320.51 170.23 320.51 140.02 387.11 156.1 387.11 138.61 448.54 201.84 370.89 189.43 371.43 218.98 320.51" style="fill:#d8d821"/></svg>