<svg xmlns="http://www.w3.org/2000/svg" viewBox="0 0 512 512"><path d="M256,470.83H140.17a40,40,0,0,1-40-40,32,32,0,0,1,32-32,25.6,25.6,0,0,1,25.6,25.6" style="fill:none;stroke:#4eadb7;stroke-linecap:round;stroke-linejoin:round;stroke-width:6px"/><path d="M149.68,490H63.23a40,40,0,0,1-40-40,32,32,0,0,1,32-32,25.6,25.6,0,0,1,25.6,25.6" style="fill:none;stroke:#4eadb7;stroke-linecap:round;stroke-linejoin:round;stroke-width:6px"/><line x1="225.91" y1="384.05" x2="225.91" y2="451.96" style="fill:none;stroke:#4eadb7;stroke-linecap:round;stroke-linejoin:round;stroke-width:6px"/><line x1="213.85" y1="388.92" x2="225.91" y2="400.98" style="fill:none;stroke:#4eadb7;stroke-linecap:round;stroke-linejoin:round;stroke-width:6px"/><line x1="237.98" y1="388.92" x2="225.91" y2="400.98" style="fill:none;stroke:#4eadb7;stroke-linecap:round;stroke-linejoin:round;stroke-width:6px"/><line x1="213.85" y1="447.1" x2="225.91" y2="435.03" style="fill:none;stroke:#4eadb7;stroke-linecap:round;stroke-linejoin:round;stroke-width:6px"/><line x1="237.98" y1="447.1" x2="225.91" y2="435.03" style="fill:none;stroke:#4eadb7;stroke-linecap:round;stroke-linejoin:round;stroke-width:6px"/><line x1="225.91" y1="384.05" x2="225.91" y2="451.96" style="fill:none;stroke:#4eadb7;stroke-linecap:round;stroke-linejoin:round;stroke-width:6px"/><line x1="213.85" y1="388.92" x2="225.91" y2="400.98" style="fill:none;stroke:#4eadb7;stroke-linecap:round;stroke-linejoin:round;stroke-width:6px"/><line x1="237.98" y1="388.92" x2="225.91" y2="400.98" style="fill:none;stroke:#4eadb7;stroke-linecap:round;stroke-linejoin:round;stroke-width:6px"/><line x1="213.85" y1="447.1" x2="225.91" y2="435.03" style="fill:none;stroke:#4eadb7;stroke-linecap:round;stroke-linejoin:round;stroke-width:6px"/><line x1="237.98" y1="447.1" x2="225.91" y2="435.03" style="fill:none;stroke:#4eadb7;stroke-linecap:round;stroke-linejoin:round;stroke-width:6px"/><line x1="253.93" y1="398.82" x2="197.9" y2="437.19" style="fill:none;stroke:#4eadb7;stroke-linecap:round;stroke-linejoin:round;stroke-width:6px"/><line x1="256.73" y1="411.53" x2="239.96" y2="408.39" style="fill:none;stroke:#4eadb7;stroke-linecap:round;stroke-linejoin:round;stroke-width:6px"/><line x1="243.1" y1="391.62" x2="239.96" y2="408.39" style="fill:none;stroke:#4eadb7;stroke-linecap:round;stroke-linejoin:round;stroke-width:6px"/><line x1="208.73" y1="444.4" x2="211.87" y2="427.63" style="fill:none;stroke:#4eadb7;stroke-linecap:round;stroke-linejoin:round;stroke-width:6px"/><line x1="195.09" y1="424.49" x2="211.87" y2="427.63" style="fill:none;stroke:#4eadb7;stroke-linecap:round;stroke-linejoin:round;stroke-width:6px"/><line x1="253.93" y1="398.82" x2="197.9" y2="437.19" style="fill:none;stroke:#4eadb7;stroke-linecap:round;stroke-linejoin:round;stroke-width:6px"/><line x1="256.73" y1="411.53" x2="239.96" y2="408.39" style="fill:none;stroke:#4eadb7;stroke-linecap:round;stroke-linejoin:round;stroke-width:6px"/><line x1="243.1" y1="391.62" x2="239.96" y2="408.39" style="fill:none;stroke:#4eadb7;stroke-linecap:round;stroke-linejoin:round;stroke-width:6px"/><line x1="208.73" y1="444.4" x2="211.87" y2="427.63" style="fill:none;stroke:#4eadb7;stroke-linecap:round;stroke-linejoin:round;stroke-width:6px"/><line x1="195.09" y1="424.49" x2="211.87" y2="427.63" style="fill:none;stroke:#4eadb7;stroke-linecap:round;stroke-linejoin:round;stroke-width:6px"/><line x1="255.44" y1="434.78" x2="196.39" y2="401.24" style="fill:none;stroke:#4eadb7;stroke-linecap:round;stroke-linejoin:round;stroke-width:6px"/><line x1="257.17" y1="421.89" x2="240.71" y2="426.42" style="fill:none;stroke:#4eadb7;stroke-linecap:round;stroke-linejoin:round;stroke-width:6px"/><line x1="245.25" y1="442.87" x2="240.71" y2="426.42" style="fill:none;stroke:#4eadb7;stroke-linecap:round;stroke-linejoin:round;stroke-width:6px"/><line x1="206.58" y1="393.15" x2="211.11" y2="409.6" style="fill:none;stroke:#4eadb7;stroke-linecap:round;stroke-linejoin:round;stroke-width:6px"/><line x1="194.66" y1="414.13" x2="211.11" y2="409.6" style="fill:none;stroke:#4eadb7;stroke-linecap:round;stroke-linejoin:round;stroke-width:6px"/><line x1="68.91" y1="327.04" x2="68.91" y2="394.95" style="fill:none;stroke:#4eadb7;stroke-linecap:round;stroke-linejoin:round;stroke-width:6px"/><line x1="56.85" y1="331.91" x2="68.91" y2="343.97" style="fill:none;stroke:#4eadb7;stroke-linecap:round;stroke-linejoin:round;stroke-width:6px"/><line x1="80.98" y1="331.91" x2="68.91" y2="343.97" style="fill:none;stroke:#4eadb7;stroke-linecap:round;stroke-linejoin:round;stroke-width:6px"/><line x1="56.85" y1="390.09" x2="68.91" y2="378.02" style="fill:none;stroke:#4eadb7;stroke-linecap:round;stroke-linejoin:round;stroke-width:6px"/><line x1="80.98" y1="390.09" x2="68.91" y2="378.02" style="fill:none;stroke:#4eadb7;stroke-linecap:round;stroke-linejoin:round;stroke-width:6px"/><line x1="68.91" y1="327.04" x2="68.91" y2="394.95" style="fill:none;stroke:#4eadb7;stroke-linecap:round;stroke-linejoin:round;stroke-width:6px"/><line x1="56.85" y1="331.91" x2="68.91" y2="343.97" style="fill:none;stroke:#4eadb7;stroke-linecap:round;stroke-linejoin:round;stroke-width:6px"/><line x1="80.98" y1="331.91" x2="68.91" y2="343.97" style="fill:none;stroke:#4eadb7;stroke-linecap:round;stroke-linejoin:round;stroke-width:6px"/><line x1="56.85" y1="390.09" x2="68.91" y2="378.02" style="fill:none;stroke:#4eadb7;stroke-linecap:round;stroke-linejoin:round;stroke-width:6px"/><line x1="80.98" y1="390.09" x2="68.91" y2="378.02" style="fill:none;stroke:#4eadb7;stroke-linecap:round;stroke-linejoin:round;stroke-width:6px"/><line x1="96.93" y1="341.81" x2="40.9" y2="380.18" style="fill:none;stroke:#4eadb7;stroke-linecap:round;stroke-linejoin:round;stroke-width:6px"/><line x1="99.73" y1="354.52" x2="82.96" y2="351.38" style="fill:none;stroke:#4eadb7;stroke-linecap:round;stroke-linejoin:round;stroke-width:6px"/><line x1="86.1" y1="334.6" x2="82.96" y2="351.38" style="fill:none;stroke:#4eadb7;stroke-linecap:round;stroke-linejoin:round;stroke-width:6px"/><line x1="51.73" y1="387.39" x2="54.87" y2="370.62" style="fill:none;stroke:#4eadb7;stroke-linecap:round;stroke-linejoin:round;stroke-width:6px"/><line x1="38.09" y1="367.48" x2="54.87" y2="370.62" style="fill:none;stroke:#4eadb7;stroke-linecap:round;stroke-linejoin:round;stroke-width:6px"/><line x1="96.93" y1="341.81" x2="40.9" y2="380.18" style="fill:none;stroke:#4eadb7;stroke-linecap:round;stroke-linejoin:round;stroke-width:6px"/><line x1="99.73" y1="354.52" x2="82.96" y2="351.38" style="fill:none;stroke:#4eadb7;stroke-linecap:round;stroke-linejoin:round;stroke-width:6px"/><line x1="86.1" y1="334.6" x2="82.96" y2="351.38" style="fill:none;stroke:#4eadb7;stroke-linecap:round;stroke-linejoin:round;stroke-width:6px"/><line x1="51.73" y1="387.39" x2="54.87" y2="370.62" style="fill:none;stroke:#4eadb7;stroke-linecap:round;stroke-linejoin:round;stroke-width:6px"/><line x1="38.09" y1="367.48" x2="54.87" y2="370.62" style="fill:none;stroke:#4eadb7;stroke-linecap:round;stroke-linejoin:round;stroke-width:6px"/><line x1="98.44" y1="377.77" x2="39.39" y2="344.23" style="fill:none;stroke:#4eadb7;stroke-linecap:round;stroke-linejoin:round;stroke-width:6px"/><line x1="100.17" y1="364.87" x2="83.72" y2="369.4" style="fill:none;stroke:#4eadb7;stroke-linecap:round;stroke-linejoin:round;stroke-width:6px"/><line x1="88.25" y1="385.86" x2="83.72" y2="369.4" style="fill:none;stroke:#4eadb7;stroke-linecap:round;stroke-linejoin:round;stroke-width:6px"/><line x1="49.58" y1="336.14" x2="54.11" y2="352.59" style="fill:none;stroke:#4eadb7;stroke-linecap:round;stroke-linejoin:round;stroke-width:6px"/><line x1="37.66" y1="357.12" x2="54.11" y2="352.59" style="fill:none;stroke:#4eadb7;stroke-linecap:round;stroke-linejoin:round;stroke-width:6px"/></svg>