<svg xmlns="http://www.w3.org/2000/svg" viewBox="0 0 512 512"><path d="M332.71,386.18H216.87a40,40,0,0,0-40,40,32,32,0,0,0,32,32,25.6,25.6,0,0,0,25.6-25.6" style="fill:none;stroke:#4eadb7;stroke-linecap:round;stroke-linejoin:round;stroke-width:6px"/><path d="M390,355.67H274.18a40,40,0,0,1-40-40,32,32,0,0,1,32-32,25.6,25.6,0,0,1,25.6,25.6" style="fill:none;stroke:#4eadb7;stroke-linecap:round;stroke-linejoin:round;stroke-width:6px"/><path d="M241.53,371.37H155.08a40,40,0,0,1-40-40,32,32,0,0,1,32-32,25.6,25.6,0,0,1,25.6,25.6" style="fill:none;stroke:#4eadb7;stroke-linecap:round;stroke-linejoin:round;stroke-width:6px"/><line x1="115.08" y1="386.18" x2="115.08" y2="454.09" style="fill:none;stroke:#4eadb7;stroke-linecap:round;stroke-linejoin:round;stroke-width:6px"/><line x1="103.01" y1="391.04" x2="115.08" y2="403.11" style="fill:none;stroke:#4eadb7;stroke-linecap:round;stroke-linejoin:round;stroke-width:6px"/><line x1="127.15" y1="391.04" x2="115.08" y2="403.11" style="fill:none;stroke:#4eadb7;stroke-linecap:round;stroke-linejoin:round;stroke-width:6px"/><line x1="103.01" y1="449.22" x2="115.08" y2="437.16" style="fill:none;stroke:#4eadb7;stroke-linecap:round;stroke-linejoin:round;stroke-width:6px"/><line x1="127.15" y1="449.22" x2="115.08" y2="437.16" style="fill:none;stroke:#4eadb7;stroke-linecap:round;stroke-linejoin:round;stroke-width:6px"/><line x1="115.08" y1="386.18" x2="115.08" y2="454.09" style="fill:none;stroke:#4eadb7;stroke-linecap:round;stroke-linejoin:round;stroke-width:6px"/><line x1="103.01" y1="391.04" x2="115.08" y2="403.11" style="fill:none;stroke:#4eadb7;stroke-linecap:round;stroke-linejoin:round;stroke-width:6px"/><line x1="127.15" y1="391.04" x2="115.08" y2="403.11" style="fill:none;stroke:#4eadb7;stroke-linecap:round;stroke-linejoin:round;stroke-width:6px"/><line x1="103.01" y1="449.22" x2="115.08" y2="437.16" style="fill:none;stroke:#4eadb7;stroke-linecap:round;stroke-linejoin:round;stroke-width:6px"/><line x1="127.15" y1="449.22" x2="115.08" y2="437.16" style="fill:none;stroke:#4eadb7;stroke-linecap:round;stroke-linejoin:round;stroke-width:6px"/><line x1="143.1" y1="400.95" x2="87.06" y2="439.32" style="fill:none;stroke:#4eadb7;stroke-linecap:round;stroke-linejoin:round;stroke-width:6px"/><line x1="145.9" y1="413.65" x2="129.13" y2="410.51" style="fill:none;stroke:#4eadb7;stroke-linecap:round;stroke-linejoin:round;stroke-width:6px"/><line x1="132.26" y1="393.74" x2="129.13" y2="410.51" style="fill:none;stroke:#4eadb7;stroke-linecap:round;stroke-linejoin:round;stroke-width:6px"/><line x1="97.89" y1="446.52" x2="101.03" y2="429.75" style="fill:none;stroke:#4eadb7;stroke-linecap:round;stroke-linejoin:round;stroke-width:6px"/><line x1="84.26" y1="426.61" x2="101.03" y2="429.75" style="fill:none;stroke:#4eadb7;stroke-linecap:round;stroke-linejoin:round;stroke-width:6px"/><line x1="143.1" y1="400.95" x2="87.06" y2="439.32" style="fill:none;stroke:#4eadb7;stroke-linecap:round;stroke-linejoin:round;stroke-width:6px"/><line x1="145.9" y1="413.65" x2="129.13" y2="410.51" style="fill:none;stroke:#4eadb7;stroke-linecap:round;stroke-linejoin:round;stroke-width:6px"/><line x1="132.26" y1="393.74" x2="129.13" y2="410.51" style="fill:none;stroke:#4eadb7;stroke-linecap:round;stroke-linejoin:round;stroke-width:6px"/><line x1="97.89" y1="446.52" x2="101.03" y2="429.75" style="fill:none;stroke:#4eadb7;stroke-linecap:round;stroke-linejoin:round;stroke-width:6px"/><line x1="84.26" y1="426.61" x2="101.03" y2="429.75" style="fill:none;stroke:#4eadb7;stroke-linecap:round;stroke-linejoin:round;stroke-width:6px"/><line x1="144.6" y1="436.9" x2="85.55" y2="403.36" style="fill:none;stroke:#4eadb7;stroke-linecap:round;stroke-linejoin:round;stroke-width:6px"/><line x1="146.33" y1="424.01" x2="129.88" y2="428.54" style="fill:none;stroke:#4eadb7;stroke-linecap:round;stroke-linejoin:round;stroke-width:6px"/><line x1="134.41" y1="444.99" x2="129.88" y2="428.54" style="fill:none;stroke:#4eadb7;stroke-linecap:round;stroke-linejoin:round;stroke-width:6px"/><line x1="95.74" y1="395.27" x2="100.28" y2="411.72" style="fill:none;stroke:#4eadb7;stroke-linecap:round;stroke-linejoin:round;stroke-width:6px"/><line x1="83.82" y1="416.26" x2="100.28" y2="411.72" style="fill:none;stroke:#4eadb7;stroke-linecap:round;stroke-linejoin:round;stroke-width:6px"/><line x1="69.32" y1="265.42" x2="69.32" y2="333.33" style="fill:none;stroke:#4eadb7;stroke-linecap:round;stroke-linejoin:round;stroke-width:6px"/><line x1="57.26" y1="270.28" x2="69.32" y2="282.35" style="fill:none;stroke:#4eadb7;stroke-linecap:round;stroke-linejoin:round;stroke-width:6px"/><line x1="81.39" y1="270.28" x2="69.32" y2="282.35" style="fill:none;stroke:#4eadb7;stroke-linecap:round;stroke-linejoin:round;stroke-width:6px"/><line x1="57.26" y1="328.46" x2="69.32" y2="316.4" style="fill:none;stroke:#4eadb7;stroke-linecap:round;stroke-linejoin:round;stroke-width:6px"/><line x1="81.39" y1="328.46" x2="69.32" y2="316.4" style="fill:none;stroke:#4eadb7;stroke-linecap:round;stroke-linejoin:round;stroke-width:6px"/><line x1="69.32" y1="265.42" x2="69.32" y2="333.33" style="fill:none;stroke:#4eadb7;stroke-linecap:round;stroke-linejoin:round;stroke-width:6px"/><line x1="57.26" y1="270.28" x2="69.32" y2="282.35" style="fill:none;stroke:#4eadb7;stroke-linecap:round;stroke-linejoin:round;stroke-width:6px"/><line x1="81.39" y1="270.28" x2="69.32" y2="282.35" style="fill:none;stroke:#4eadb7;stroke-linecap:round;stroke-linejoin:round;stroke-width:6px"/><line x1="57.26" y1="328.46" x2="69.32" y2="316.4" style="fill:none;stroke:#4eadb7;stroke-linecap:round;stroke-linejoin:round;stroke-width:6px"/><line x1="81.39" y1="328.46" x2="69.32" y2="316.4" style="fill:none;stroke:#4eadb7;stroke-linecap:round;stroke-linejoin:round;stroke-width:6px"/><line x1="97.34" y1="280.19" x2="41.31" y2="318.56" style="fill:none;stroke:#4eadb7;stroke-linecap:round;stroke-linejoin:round;stroke-width:6px"/><line x1="100.15" y1="292.89" x2="83.37" y2="289.75" style="fill:none;stroke:#4eadb7;stroke-linecap:round;stroke-linejoin:round;stroke-width:6px"/><line x1="86.51" y1="272.98" x2="83.37" y2="289.75" style="fill:none;stroke:#4eadb7;stroke-linecap:round;stroke-linejoin:round;stroke-width:6px"/><line x1="52.14" y1="325.77" x2="55.28" y2="308.99" style="fill:none;stroke:#4eadb7;stroke-linecap:round;stroke-linejoin:round;stroke-width:6px"/><line x1="38.5" y1="305.85" x2="55.28" y2="308.99" style="fill:none;stroke:#4eadb7;stroke-linecap:round;stroke-linejoin:round;stroke-width:6px"/><line x1="97.34" y1="280.19" x2="41.31" y2="318.56" style="fill:none;stroke:#4eadb7;stroke-linecap:round;stroke-linejoin:round;stroke-width:6px"/><line x1="100.15" y1="292.89" x2="83.37" y2="289.75" style="fill:none;stroke:#4eadb7;stroke-linecap:round;stroke-linejoin:round;stroke-width:6px"/><line x1="86.51" y1="272.98" x2="83.37" y2="289.75" style="fill:none;stroke:#4eadb7;stroke-linecap:round;stroke-linejoin:round;stroke-width:6px"/><line x1="52.14" y1="325.77" x2="55.28" y2="308.99" style="fill:none;stroke:#4eadb7;stroke-linecap:round;stroke-linejoin:round;stroke-width:6px"/><line x1="38.5" y1="305.85" x2="55.28" y2="308.99" style="fill:none;stroke:#4eadb7;stroke-linecap:round;stroke-linejoin:round;stroke-width:6px"/><line x1="98.85" y1="316.14" x2="39.8" y2="282.6" style="fill:none;stroke:#4eadb7;stroke-linecap:round;stroke-linejoin:round;stroke-width:6px"/><line x1="100.58" y1="303.25" x2="84.13" y2="307.78" style="fill:none;stroke:#4eadb7;stroke-linecap:round;stroke-linejoin:round;stroke-width:6px"/><line x1="88.66" y1="324.23" x2="84.13" y2="307.78" style="fill:none;stroke:#4eadb7;stroke-linecap:round;stroke-linejoin:round;stroke-width:6px"/><line x1="49.99" y1="274.51" x2="54.52" y2="290.96" style="fill:none;stroke:#4eadb7;stroke-linecap:round;stroke-linejoin:round;stroke-width:6px"/><line x1="38.07" y1="295.5" x2="54.52" y2="290.96" style="fill:none;stroke:#4eadb7;stroke-linecap:round;stroke-linejoin:round;stroke-width:6px"/></svg>