<svg xmlns="http://www.w3.org/2000/svg" viewBox="0 0 512 512"><path d="M414.56,169.73c-1.93,0-3.85.08-5.76.19a94.39,94.39,0,0,0-149.64-61.6,94.37,94.37,0,0,0-166,61.41v.11A94.38,94.38,0,0,0,97.44,358.5H414.56a94.39,94.39,0,1,0,0-188.77Z" style="fill:#4eadb7"/><line x1="87.37" y1="374.64" x2="87.37" y2="442.55" style="fill:none;stroke:#4eadb7;stroke-linecap:round;stroke-linejoin:round;stroke-width:6px"/><line x1="75.31" y1="379.5" x2="87.37" y2="391.57" style="fill:none;stroke:#4eadb7;stroke-linecap:round;stroke-linejoin:round;stroke-width:6px"/><line x1="99.44" y1="379.5" x2="87.37" y2="391.57" style="fill:none;stroke:#4eadb7;stroke-linecap:round;stroke-linejoin:round;stroke-width:6px"/><line x1="75.31" y1="437.68" x2="87.37" y2="425.62" style="fill:none;stroke:#4eadb7;stroke-linecap:round;stroke-linejoin:round;stroke-width:6px"/><line x1="99.44" y1="437.68" x2="87.37" y2="425.62" style="fill:none;stroke:#4eadb7;stroke-linecap:round;stroke-linejoin:round;stroke-width:6px"/><line x1="87.37" y1="374.64" x2="87.37" y2="442.55" style="fill:none;stroke:#4eadb7;stroke-linecap:round;stroke-linejoin:round;stroke-width:6px"/><line x1="75.31" y1="379.5" x2="87.37" y2="391.57" style="fill:none;stroke:#4eadb7;stroke-linecap:round;stroke-linejoin:round;stroke-width:6px"/><line x1="99.44" y1="379.5" x2="87.37" y2="391.57" style="fill:none;stroke:#4eadb7;stroke-linecap:round;stroke-linejoin:round;stroke-width:6px"/><line x1="75.31" y1="437.68" x2="87.37" y2="425.62" style="fill:none;stroke:#4eadb7;stroke-linecap:round;stroke-linejoin:round;stroke-width:6px"/><line x1="99.44" y1="437.68" x2="87.37" y2="425.62" style="fill:none;stroke:#4eadb7;stroke-linecap:round;stroke-linejoin:round;stroke-width:6px"/><line x1="115.39" y1="389.41" x2="59.36" y2="427.78" style="fill:none;stroke:#4eadb7;stroke-linecap:round;stroke-linejoin:round;stroke-width:6px"/><line x1="118.19" y1="402.11" x2="101.42" y2="398.97" style="fill:none;stroke:#4eadb7;stroke-linecap:round;stroke-linejoin:round;stroke-width:6px"/><line x1="104.56" y1="382.2" x2="101.42" y2="398.97" style="fill:none;stroke:#4eadb7;stroke-linecap:round;stroke-linejoin:round;stroke-width:6px"/><line x1="70.19" y1="434.98" x2="73.33" y2="418.21" style="fill:none;stroke:#4eadb7;stroke-linecap:round;stroke-linejoin:round;stroke-width:6px"/><line x1="56.55" y1="415.07" x2="73.33" y2="418.21" style="fill:none;stroke:#4eadb7;stroke-linecap:round;stroke-linejoin:round;stroke-width:6px"/><line x1="115.39" y1="389.41" x2="59.36" y2="427.78" style="fill:none;stroke:#4eadb7;stroke-linecap:round;stroke-linejoin:round;stroke-width:6px"/><line x1="118.19" y1="402.11" x2="101.42" y2="398.97" style="fill:none;stroke:#4eadb7;stroke-linecap:round;stroke-linejoin:round;stroke-width:6px"/><line x1="104.56" y1="382.2" x2="101.42" y2="398.97" style="fill:none;stroke:#4eadb7;stroke-linecap:round;stroke-linejoin:round;stroke-width:6px"/><line x1="70.19" y1="434.98" x2="73.33" y2="418.21" style="fill:none;stroke:#4eadb7;stroke-linecap:round;stroke-linejoin:round;stroke-width:6px"/><line x1="56.55" y1="415.07" x2="73.33" y2="418.21" style="fill:none;stroke:#4eadb7;stroke-linecap:round;stroke-linejoin:round;stroke-width:6px"/><line x1="116.9" y1="425.36" x2="57.85" y2="391.82" style="fill:none;stroke:#4eadb7;stroke-linecap:round;stroke-linejoin:round;stroke-width:6px"/><line x1="118.63" y1="412.47" x2="102.18" y2="417" style="fill:none;stroke:#4eadb7;stroke-linecap:round;stroke-linejoin:round;stroke-width:6px"/><line x1="106.71" y1="433.45" x2="102.18" y2="417" style="fill:none;stroke:#4eadb7;stroke-linecap:round;stroke-linejoin:round;stroke-width:6px"/><line x1="68.04" y1="383.73" x2="72.57" y2="400.18" style="fill:none;stroke:#4eadb7;stroke-linecap:round;stroke-linejoin:round;stroke-width:6px"/><line x1="56.12" y1="404.72" x2="72.57" y2="400.18" style="fill:none;stroke:#4eadb7;stroke-linecap:round;stroke-linejoin:round;stroke-width:6px"/><line x1="172.02" y1="427.86" x2="172.02" y2="495.77" style="fill:none;stroke:#4eadb7;stroke-linecap:round;stroke-linejoin:round;stroke-width:6px"/><line x1="159.95" y1="432.72" x2="172.02" y2="444.79" style="fill:none;stroke:#4eadb7;stroke-linecap:round;stroke-linejoin:round;stroke-width:6px"/><line x1="184.08" y1="432.72" x2="172.02" y2="444.79" style="fill:none;stroke:#4eadb7;stroke-linecap:round;stroke-linejoin:round;stroke-width:6px"/><line x1="159.95" y1="490.9" x2="172.02" y2="478.84" style="fill:none;stroke:#4eadb7;stroke-linecap:round;stroke-linejoin:round;stroke-width:6px"/><line x1="184.08" y1="490.9" x2="172.02" y2="478.84" style="fill:none;stroke:#4eadb7;stroke-linecap:round;stroke-linejoin:round;stroke-width:6px"/><line x1="172.02" y1="427.86" x2="172.02" y2="495.77" style="fill:none;stroke:#4eadb7;stroke-linecap:round;stroke-linejoin:round;stroke-width:6px"/><line x1="159.95" y1="432.72" x2="172.02" y2="444.79" style="fill:none;stroke:#4eadb7;stroke-linecap:round;stroke-linejoin:round;stroke-width:6px"/><line x1="184.08" y1="432.72" x2="172.02" y2="444.79" style="fill:none;stroke:#4eadb7;stroke-linecap:round;stroke-linejoin:round;stroke-width:6px"/><line x1="159.95" y1="490.9" x2="172.02" y2="478.84" style="fill:none;stroke:#4eadb7;stroke-linecap:round;stroke-linejoin:round;stroke-width:6px"/><line x1="184.08" y1="490.9" x2="172.02" y2="478.84" style="fill:none;stroke:#4eadb7;stroke-linecap:round;stroke-linejoin:round;stroke-width:6px"/><line x1="200.03" y1="442.63" x2="144" y2="481" style="fill:none;stroke:#4eadb7;stroke-linecap:round;stroke-linejoin:round;stroke-width:6px"/><line x1="202.84" y1="455.33" x2="186.06" y2="452.19" style="fill:none;stroke:#4eadb7;stroke-linecap:round;stroke-linejoin:round;stroke-width:6px"/><line x1="189.2" y1="435.42" x2="186.06" y2="452.19" style="fill:none;stroke:#4eadb7;stroke-linecap:round;stroke-linejoin:round;stroke-width:6px"/><line x1="154.83" y1="488.2" x2="157.97" y2="471.43" style="fill:none;stroke:#4eadb7;stroke-linecap:round;stroke-linejoin:round;stroke-width:6px"/><line x1="141.2" y1="468.29" x2="157.97" y2="471.43" style="fill:none;stroke:#4eadb7;stroke-linecap:round;stroke-linejoin:round;stroke-width:6px"/><line x1="200.03" y1="442.63" x2="144" y2="481" style="fill:none;stroke:#4eadb7;stroke-linecap:round;stroke-linejoin:round;stroke-width:6px"/><line x1="202.84" y1="455.33" x2="186.06" y2="452.19" style="fill:none;stroke:#4eadb7;stroke-linecap:round;stroke-linejoin:round;stroke-width:6px"/><line x1="189.2" y1="435.42" x2="186.06" y2="452.19" style="fill:none;stroke:#4eadb7;stroke-linecap:round;stroke-linejoin:round;stroke-width:6px"/><line x1="154.83" y1="488.2" x2="157.97" y2="471.43" style="fill:none;stroke:#4eadb7;stroke-linecap:round;stroke-linejoin:round;stroke-width:6px"/><line x1="141.2" y1="468.29" x2="157.97" y2="471.43" style="fill:none;stroke:#4eadb7;stroke-linecap:round;stroke-linejoin:round;stroke-width:6px"/><line x1="201.54" y1="478.58" x2="142.49" y2="445.04" style="fill:none;stroke:#4eadb7;stroke-linecap:round;stroke-linejoin:round;stroke-width:6px"/><line x1="203.27" y1="465.69" x2="186.82" y2="470.22" style="fill:none;stroke:#4eadb7;stroke-linecap:round;stroke-linejoin:round;stroke-width:6px"/><line x1="191.35" y1="486.67" x2="186.82" y2="470.22" style="fill:none;stroke:#4eadb7;stroke-linecap:round;stroke-linejoin:round;stroke-width:6px"/><line x1="152.68" y1="436.95" x2="157.21" y2="453.4" style="fill:none;stroke:#4eadb7;stroke-linecap:round;stroke-linejoin:round;stroke-width:6px"/><line x1="140.76" y1="457.93" x2="157.21" y2="453.4" style="fill:none;stroke:#4eadb7;stroke-linecap:round;stroke-linejoin:round;stroke-width:6px"/><line x1="256.68" y1="382.69" x2="256.68" y2="450.6" style="fill:none;stroke:#4eadb7;stroke-linecap:round;stroke-linejoin:round;stroke-width:6px"/><line x1="244.62" y1="387.55" x2="256.68" y2="399.62" style="fill:none;stroke:#4eadb7;stroke-linecap:round;stroke-linejoin:round;stroke-width:6px"/><line x1="268.75" y1="387.55" x2="256.68" y2="399.62" style="fill:none;stroke:#4eadb7;stroke-linecap:round;stroke-linejoin:round;stroke-width:6px"/><line x1="244.62" y1="445.73" x2="256.68" y2="433.67" style="fill:none;stroke:#4eadb7;stroke-linecap:round;stroke-linejoin:round;stroke-width:6px"/><line x1="268.75" y1="445.73" x2="256.68" y2="433.67" style="fill:none;stroke:#4eadb7;stroke-linecap:round;stroke-linejoin:round;stroke-width:6px"/><line x1="256.68" y1="382.69" x2="256.68" y2="450.6" style="fill:none;stroke:#4eadb7;stroke-linecap:round;stroke-linejoin:round;stroke-width:6px"/><line x1="244.62" y1="387.55" x2="256.68" y2="399.62" style="fill:none;stroke:#4eadb7;stroke-linecap:round;stroke-linejoin:round;stroke-width:6px"/><line x1="268.75" y1="387.55" x2="256.68" y2="399.62" style="fill:none;stroke:#4eadb7;stroke-linecap:round;stroke-linejoin:round;stroke-width:6px"/><line x1="244.62" y1="445.73" x2="256.68" y2="433.67" style="fill:none;stroke:#4eadb7;stroke-linecap:round;stroke-linejoin:round;stroke-width:6px"/><line x1="268.75" y1="445.73" x2="256.68" y2="433.67" style="fill:none;stroke:#4eadb7;stroke-linecap:round;stroke-linejoin:round;stroke-width:6px"/><line x1="284.7" y1="397.46" x2="228.67" y2="435.83" style="fill:none;stroke:#4eadb7;stroke-linecap:round;stroke-linejoin:round;stroke-width:6px"/><line x1="287.5" y1="410.16" x2="270.73" y2="407.02" style="fill:none;stroke:#4eadb7;stroke-linecap:round;stroke-linejoin:round;stroke-width:6px"/><line x1="273.87" y1="390.25" x2="270.73" y2="407.02" style="fill:none;stroke:#4eadb7;stroke-linecap:round;stroke-linejoin:round;stroke-width:6px"/><line x1="239.5" y1="443.03" x2="242.64" y2="426.26" style="fill:none;stroke:#4eadb7;stroke-linecap:round;stroke-linejoin:round;stroke-width:6px"/><line x1="225.86" y1="423.12" x2="242.64" y2="426.26" style="fill:none;stroke:#4eadb7;stroke-linecap:round;stroke-linejoin:round;stroke-width:6px"/><line x1="284.7" y1="397.46" x2="228.67" y2="435.83" style="fill:none;stroke:#4eadb7;stroke-linecap:round;stroke-linejoin:round;stroke-width:6px"/><line x1="287.5" y1="410.16" x2="270.73" y2="407.02" style="fill:none;stroke:#4eadb7;stroke-linecap:round;stroke-linejoin:round;stroke-width:6px"/><line x1="273.87" y1="390.25" x2="270.73" y2="407.02" style="fill:none;stroke:#4eadb7;stroke-linecap:round;stroke-linejoin:round;stroke-width:6px"/><line x1="239.5" y1="443.03" x2="242.64" y2="426.26" style="fill:none;stroke:#4eadb7;stroke-linecap:round;stroke-linejoin:round;stroke-width:6px"/><line x1="225.86" y1="423.12" x2="242.64" y2="426.26" style="fill:none;stroke:#4eadb7;stroke-linecap:round;stroke-linejoin:round;stroke-width:6px"/><line x1="286.21" y1="433.41" x2="227.16" y2="399.87" style="fill:none;stroke:#4eadb7;stroke-linecap:round;stroke-linejoin:round;stroke-width:6px"/><line x1="287.94" y1="420.52" x2="271.49" y2="425.05" style="fill:none;stroke:#4eadb7;stroke-linecap:round;stroke-linejoin:round;stroke-width:6px"/><line x1="276.02" y1="441.5" x2="271.49" y2="425.05" style="fill:none;stroke:#4eadb7;stroke-linecap:round;stroke-linejoin:round;stroke-width:6px"/><line x1="237.35" y1="391.78" x2="241.88" y2="408.23" style="fill:none;stroke:#4eadb7;stroke-linecap:round;stroke-linejoin:round;stroke-width:6px"/><line x1="225.43" y1="412.77" x2="241.88" y2="408.23" style="fill:none;stroke:#4eadb7;stroke-linecap:round;stroke-linejoin:round;stroke-width:6px"/><line x1="340.42" y1="430.25" x2="340.42" y2="498.16" style="fill:none;stroke:#4eadb7;stroke-linecap:round;stroke-linejoin:round;stroke-width:6px"/><line x1="328.36" y1="435.12" x2="340.42" y2="447.18" style="fill:none;stroke:#4eadb7;stroke-linecap:round;stroke-linejoin:round;stroke-width:6px"/><line x1="352.49" y1="435.12" x2="340.42" y2="447.18" style="fill:none;stroke:#4eadb7;stroke-linecap:round;stroke-linejoin:round;stroke-width:6px"/><line x1="328.36" y1="493.3" x2="340.42" y2="481.23" style="fill:none;stroke:#4eadb7;stroke-linecap:round;stroke-linejoin:round;stroke-width:6px"/><line x1="352.49" y1="493.3" x2="340.42" y2="481.23" style="fill:none;stroke:#4eadb7;stroke-linecap:round;stroke-linejoin:round;stroke-width:6px"/><line x1="340.42" y1="430.25" x2="340.42" y2="498.16" style="fill:none;stroke:#4eadb7;stroke-linecap:round;stroke-linejoin:round;stroke-width:6px"/><line x1="328.36" y1="435.12" x2="340.42" y2="447.18" style="fill:none;stroke:#4eadb7;stroke-linecap:round;stroke-linejoin:round;stroke-width:6px"/><line x1="352.49" y1="435.12" x2="340.42" y2="447.18" style="fill:none;stroke:#4eadb7;stroke-linecap:round;stroke-linejoin:round;stroke-width:6px"/><line x1="328.36" y1="493.3" x2="340.42" y2="481.23" style="fill:none;stroke:#4eadb7;stroke-linecap:round;stroke-linejoin:round;stroke-width:6px"/><line x1="352.49" y1="493.3" x2="340.42" y2="481.23" style="fill:none;stroke:#4eadb7;stroke-linecap:round;stroke-linejoin:round;stroke-width:6px"/><line x1="368.44" y1="445.02" x2="312.41" y2="483.39" style="fill:none;stroke:#4eadb7;stroke-linecap:round;stroke-linejoin:round;stroke-width:6px"/><line x1="371.24" y1="457.73" x2="354.47" y2="454.59" style="fill:none;stroke:#4eadb7;stroke-linecap:round;stroke-linejoin:round;stroke-width:6px"/><line x1="357.61" y1="437.81" x2="354.47" y2="454.59" style="fill:none;stroke:#4eadb7;stroke-linecap:round;stroke-linejoin:round;stroke-width:6px"/><line x1="323.24" y1="490.6" x2="326.38" y2="473.83" style="fill:none;stroke:#4eadb7;stroke-linecap:round;stroke-linejoin:round;stroke-width:6px"/><line x1="309.6" y1="470.69" x2="326.38" y2="473.83" style="fill:none;stroke:#4eadb7;stroke-linecap:round;stroke-linejoin:round;stroke-width:6px"/><line x1="368.44" y1="445.02" x2="312.41" y2="483.39" style="fill:none;stroke:#4eadb7;stroke-linecap:round;stroke-linejoin:round;stroke-width:6px"/><line x1="371.24" y1="457.73" x2="354.47" y2="454.59" style="fill:none;stroke:#4eadb7;stroke-linecap:round;stroke-linejoin:round;stroke-width:6px"/><line x1="357.61" y1="437.81" x2="354.47" y2="454.59" style="fill:none;stroke:#4eadb7;stroke-linecap:round;stroke-linejoin:round;stroke-width:6px"/><line x1="323.24" y1="490.6" x2="326.38" y2="473.83" style="fill:none;stroke:#4eadb7;stroke-linecap:round;stroke-linejoin:round;stroke-width:6px"/><line x1="309.6" y1="470.69" x2="326.38" y2="473.83" style="fill:none;stroke:#4eadb7;stroke-linecap:round;stroke-linejoin:round;stroke-width:6px"/><line x1="369.95" y1="480.98" x2="310.9" y2="447.44" style="fill:none;stroke:#4eadb7;stroke-linecap:round;stroke-linejoin:round;stroke-width:6px"/><line x1="371.68" y1="468.08" x2="355.23" y2="472.62" style="fill:none;stroke:#4eadb7;stroke-linecap:round;stroke-linejoin:round;stroke-width:6px"/><line x1="359.76" y1="489.07" x2="355.23" y2="472.62" style="fill:none;stroke:#4eadb7;stroke-linecap:round;stroke-linejoin:round;stroke-width:6px"/><line x1="321.09" y1="439.35" x2="325.62" y2="455.8" style="fill:none;stroke:#4eadb7;stroke-linecap:round;stroke-linejoin:round;stroke-width:6px"/><line x1="309.17" y1="460.33" x2="325.62" y2="455.8" style="fill:none;stroke:#4eadb7;stroke-linecap:round;stroke-linejoin:round;stroke-width:6px"/><line x1="424.63" y1="392.06" x2="424.63" y2="459.97" style="fill:none;stroke:#4eadb7;stroke-linecap:round;stroke-linejoin:round;stroke-width:6px"/><line x1="412.56" y1="396.93" x2="424.63" y2="408.99" style="fill:none;stroke:#4eadb7;stroke-linecap:round;stroke-linejoin:round;stroke-width:6px"/><line x1="436.69" y1="396.93" x2="424.63" y2="408.99" style="fill:none;stroke:#4eadb7;stroke-linecap:round;stroke-linejoin:round;stroke-width:6px"/><line x1="412.56" y1="455.11" x2="424.63" y2="443.04" style="fill:none;stroke:#4eadb7;stroke-linecap:round;stroke-linejoin:round;stroke-width:6px"/><line x1="436.69" y1="455.11" x2="424.63" y2="443.04" style="fill:none;stroke:#4eadb7;stroke-linecap:round;stroke-linejoin:round;stroke-width:6px"/><line x1="424.63" y1="392.06" x2="424.63" y2="459.97" style="fill:none;stroke:#4eadb7;stroke-linecap:round;stroke-linejoin:round;stroke-width:6px"/><line x1="412.56" y1="396.93" x2="424.63" y2="408.99" style="fill:none;stroke:#4eadb7;stroke-linecap:round;stroke-linejoin:round;stroke-width:6px"/><line x1="436.69" y1="396.93" x2="424.63" y2="408.99" style="fill:none;stroke:#4eadb7;stroke-linecap:round;stroke-linejoin:round;stroke-width:6px"/><line x1="412.56" y1="455.11" x2="424.63" y2="443.04" style="fill:none;stroke:#4eadb7;stroke-linecap:round;stroke-linejoin:round;stroke-width:6px"/><line x1="436.69" y1="455.11" x2="424.63" y2="443.04" style="fill:none;stroke:#4eadb7;stroke-linecap:round;stroke-linejoin:round;stroke-width:6px"/><line x1="452.64" y1="406.83" x2="396.61" y2="445.2" style="fill:none;stroke:#4eadb7;stroke-linecap:round;stroke-linejoin:round;stroke-width:6px"/><line x1="455.45" y1="419.54" x2="438.67" y2="416.4" style="fill:none;stroke:#4eadb7;stroke-linecap:round;stroke-linejoin:round;stroke-width:6px"/><line x1="441.81" y1="399.62" x2="438.67" y2="416.4" style="fill:none;stroke:#4eadb7;stroke-linecap:round;stroke-linejoin:round;stroke-width:6px"/><line x1="407.44" y1="452.41" x2="410.58" y2="435.64" style="fill:none;stroke:#4eadb7;stroke-linecap:round;stroke-linejoin:round;stroke-width:6px"/><line x1="393.81" y1="432.5" x2="410.58" y2="435.64" style="fill:none;stroke:#4eadb7;stroke-linecap:round;stroke-linejoin:round;stroke-width:6px"/><line x1="452.64" y1="406.83" x2="396.61" y2="445.2" style="fill:none;stroke:#4eadb7;stroke-linecap:round;stroke-linejoin:round;stroke-width:6px"/><line x1="455.45" y1="419.54" x2="438.67" y2="416.4" style="fill:none;stroke:#4eadb7;stroke-linecap:round;stroke-linejoin:round;stroke-width:6px"/><line x1="441.81" y1="399.62" x2="438.67" y2="416.4" style="fill:none;stroke:#4eadb7;stroke-linecap:round;stroke-linejoin:round;stroke-width:6px"/><line x1="407.44" y1="452.41" x2="410.58" y2="435.64" style="fill:none;stroke:#4eadb7;stroke-linecap:round;stroke-linejoin:round;stroke-width:6px"/><line x1="393.81" y1="432.5" x2="410.58" y2="435.64" style="fill:none;stroke:#4eadb7;stroke-linecap:round;stroke-linejoin:round;stroke-width:6px"/><line x1="454.15" y1="442.79" x2="395.1" y2="409.25" style="fill:none;stroke:#4eadb7;stroke-linecap:round;stroke-linejoin:round;stroke-width:6px"/><line x1="455.88" y1="429.89" x2="439.43" y2="434.42" style="fill:none;stroke:#4eadb7;stroke-linecap:round;stroke-linejoin:round;stroke-width:6px"/><line x1="443.96" y1="450.88" x2="439.43" y2="434.42" style="fill:none;stroke:#4eadb7;stroke-linecap:round;stroke-linejoin:round;stroke-width:6px"/><line x1="405.29" y1="401.16" x2="409.82" y2="417.61" style="fill:none;stroke:#4eadb7;stroke-linecap:round;stroke-linejoin:round;stroke-width:6px"/><line x1="393.37" y1="422.14" x2="409.82" y2="417.61" style="fill:none;stroke:#4eadb7;stroke-linecap:round;stroke-linejoin:round;stroke-width:6px"/></svg>